<?xml version="1.0" standalone="no"?>
<!DOCTYPE svg PUBLIC "-//W3C//DTD SVG 1.1//EN" "http://www.w3.org/Graphics/SVG/1.1/DTD/svg11.dtd" >
<svg xmlns="http://www.w3.org/2000/svg">
<metadata>Generated by IcoMoon</metadata>
<defs>
<font id="icomoon" horiz-adv-x="1024">
<font-face units-per-em="1024" ascent="960" descent="-64" />
<missing-glyph horiz-adv-x="1024" />
<glyph unicode="&#x20;" horiz-adv-x="512" d="" />
<glyph unicode="&#xe900;" glyph-name="x27" horiz-adv-x="1018" d="M271.875-52.452c-24.331 0-47.649 7.591-67.381 21.884-34.989 25.395-52.867 69.36-45.572 111.94l38.451 224.176-162.853 158.649c-31.008 30.192-42.382 76.258-28.98 117.404 13.526 41.739 48.91 71.61 92.356 77.94l225.116 32.739 100.615 203.9c19.51 39.415 58.9 63.845 102.692 63.845 43.891 0 83.256-24.43 102.717-63.845l100.541-203.9 225.116-32.689c43.47-6.38 78.855-36.275 92.405-77.989 13.402-41.195 1.978-87.262-29.005-117.454l-162.853-158.6 38.475-224.176c7.344-42.654-10.608-86.594-45.622-111.94-34.717-25.222-82.91-28.585-120.619-8.704l-201.205 105.708-201.304-105.758c-16.172-8.556-34.618-13.13-53.089-13.13zM526.366 893.929c-18.521 0-35.187-10.385-43.495-27.051l-115.921-235.007-259.511-37.709c-18.026-2.596-33.406-15.603-39.019-32.986-5.687-17.433-0.89-36.893 12.215-49.603l187.728-182.931-44.286-258.423c-3.066-18.026 4.476-36.571 19.164-47.328 14.688-10.583 35.014-12.166 51.037-3.66l232.064 121.905 231.99-121.905c16.147-8.506 36.25-6.998 51.062 3.709 14.787 10.732 22.304 29.277 19.238 47.278l-44.336 258.423 187.704 182.882c13.155 12.759 17.952 32.219 12.265 49.652-5.687 17.68-20.697 30.34-39.019 32.986l-259.487 37.709-115.946 235.106c-8.234 16.617-24.851 26.953-43.446 26.953z" />
<glyph unicode="&#xe901;" glyph-name="nice26" horiz-adv-x="883" d="M648.347 425.546c37.81 38.493 63.649 86.114 75.532 138.232 95.682 40.213 159.199 134.683 159.199 239.294 0 12.633-10.252 22.884-22.862 22.884h-128.885v111.181c0 12.633-10.252 22.862-22.862 22.862h-534.587c-12.633 0-22.862-10.23-22.862-22.862v-111.203h-128.113c-12.655 0-22.906-10.252-22.906-22.884 0-104.457 63.428-198.883 158.934-239.162 11.883-52.184 37.722-99.849 75.576-138.387 36.818-37.545 82.543-63.935 132.831-77.163 4.475-53.309-30.667-103.465-84.086-115.48-0.683-0.176-1.213-0.617-1.896-0.86-1.499-0.463-2.844-1.080-4.167-1.852-1.257-0.728-2.447-1.455-3.527-2.381-1.124-0.948-2.072-2.006-2.976-3.175-0.904-1.146-1.72-2.271-2.403-3.55s-1.124-2.602-1.543-4.012c-0.463-1.477-0.772-2.932-0.904-4.498-0.088-0.683-0.441-1.301-0.441-1.984v-68.631h-64.045c-12.655 0-22.862-10.252-22.862-22.884v-160.147c0-12.633 10.208-22.884 22.862-22.884h480.418c12.611 0 22.862 10.252 22.862 22.884v160.147c0 12.633-10.252 22.884-22.862 22.884h-64.068v68.631c0 0.772-0.353 1.411-0.441 2.183-0.132 1.433-0.441 2.756-0.816 4.123-0.463 1.499-0.948 2.932-1.676 4.299-0.639 1.213-1.411 2.293-2.293 3.351-0.948 1.213-1.94 2.293-3.109 3.263-1.080 0.926-2.249 1.653-3.527 2.359-1.345 0.75-2.668 1.389-4.145 1.852-0.683 0.243-1.213 0.683-1.896 0.86-53.529 12.015-88.627 62.26-84.086 115.568 50.266 13.25 95.859 39.64 132.633 77.141zM441.396 338.638c9.26 0 18.519 0.507 27.691 1.389-0.22-40.125 15.411-78.177 42.021-106.618h-139.18c26.566 28.44 42.197 66.493 42.021 106.618 9.149-0.86 18.321-1.389 27.448-1.389zM835.964 780.188c-7.364-67.683-46.717-127.937-105.118-161.955 0.132 3.439 0.463 6.901 0.463 10.34 0 0.044 0 0.088 0 0.132s0 0.066 0 0.11v151.372h104.655zM47.158 780.188h103.862v-151.372c0-1.102 0.463-2.050 0.595-3.087 0.044-2.447 0.265-4.916 0.353-7.342-58.225 34.062-97.49 94.205-104.81 161.8zM201.22 584.612c-2.668 14.418-3.968 29.19-3.968 43.961 0 0.816-0.397 1.543-0.463 2.337v283.365h488.774v-285.46c0-0.044 0.044-0.066 0.044-0.11s-0.044-0.088-0.044-0.132c0-14.837-1.301-29.675-3.968-44.093-8.73-47.973-31.527-91.868-65.875-126.9-34.371-35.010-77.714-58.6-125.423-68.3-31.725-6.46-65.545-6.504-97.534-0.044-47.797 9.656-91.251 33.29-125.6 68.3-34.415 35.054-57.255 78.993-65.941 127.077zM658.908-18.231h-434.693v114.378h434.693v-114.378zM311.144 141.916v45.747h260.812v-45.747h-260.812zM512.452 61.82h-141.848c-12.611 0-22.862-10.23-22.862-22.862s10.252-22.862 22.862-22.862h141.848c12.655 0 22.862 10.23 22.862 22.862s-10.208 22.862-22.862 22.862z" />
<glyph unicode="&#xe902;" glyph-name="n25" horiz-adv-x="1022" d="M381.83-61.591c-5.436 0-10.932 2.071-15.054 6.233-8.324 8.324-8.324 21.785 0 30.108 156.416 156.416 140.286 308.291 123.181 469.128l-0.617 6.233c-17.424 163.664-35.385 332.923 135.428 503.696 8.284 8.324 21.785 8.324 30.108 0s8.324-21.785 0-30.108c-156.416-156.416-140.326-308.291-123.241-469.128l0.697-6.233c17.384-163.664 35.385-332.884-135.467-503.696-4.142-4.162-9.578-6.233-15.034-6.233v0zM919.597 573.093c-5.436 0-10.892 2.071-15.054 6.233l-263.607 263.607c-8.324 8.324-8.324 21.825 0 30.108 8.324 8.324 21.785 8.324 30.108 0l263.607-263.607c8.284-8.324 8.284-21.785 0-30.108-4.162-4.162-9.598-6.233-15.054-6.233v0zM844.266 522.932c-5.396 0-10.853 2.071-15.014 6.233l-237.64 237.581c-8.284 8.324-8.284 21.785 0 30.108 8.324 8.284 21.825 8.284 30.108 0l237.64-237.64c8.284-8.284 8.284-21.785 0-30.068-4.162-4.162-9.618-6.213-15.094-6.213v0zM750.616 491.111c-5.476 0-10.892 2.091-15.094 6.253l-176.568 176.568c-8.284 8.284-8.284 21.785 0 30.108 8.324 8.284 21.785 8.284 30.148 0l176.528-176.568c8.324-8.324 8.324-21.825 0-30.108-4.162-4.142-9.618-6.253-15.014-6.253v0zM631.955 484.261c-5.436 0-10.892 2.071-15.054 6.233l-66.708 66.708c-8.284 8.284-8.284 21.785 0 30.108 8.324 8.284 21.825 8.284 30.108 0l66.708-66.708c8.324-8.324 8.324-21.825 0-30.108-4.162-4.162-9.578-6.233-15.054-6.233v0zM365.66 19.156c-5.476 0-10.892 2.071-15.054 6.233l-263.647 263.607c-8.324 8.324-8.324 21.785 0 30.108 8.324 8.284 21.825 8.284 30.148 0l263.607-263.647c8.284-8.284 8.284-21.785-0.040-30.068-4.122-4.182-9.618-6.233-15.014-6.233v0zM415.821 94.447c-5.436 0-10.892 2.091-15.054 6.233l-238.477 238.477c-8.324 8.324-8.324 21.785 0 30.108s21.785 8.324 30.108 0l238.497-238.497c8.284-8.324 8.284-21.785 0-30.108-4.182-4.102-9.618-6.213-15.074-6.213v0zM447.602 188.137c-5.436 0-10.892 2.071-15.054 6.253l-176.568 176.528c-8.324 8.324-8.324 21.785 0 30.148 8.324 8.284 21.785 8.284 30.108 0l176.568-176.607c8.284-8.284 8.284-21.785 0-30.068-4.162-4.182-9.618-6.253-15.054-6.253v0zM454.492 306.758c-5.436 0-10.892 2.091-15.054 6.233l-66.708 66.708c-8.284 8.324-8.284 21.785 0 30.108 8.324 8.324 21.785 8.324 30.108 0l66.708-66.708c8.324-8.284 8.324-21.785 0-30.108-4.162-4.122-9.618-6.233-15.054-6.233v0zM21.307 298.952c-5.436 0-10.892 2.071-15.094 6.233-8.284 8.324-8.284 21.785 0 30.108 170.853 170.773 340.072 152.811 503.736 135.428l6.233-0.657c160.816-17.065 312.692-33.215 469.128 123.221 8.324 8.324 21.745 8.324 30.068 0s8.324-21.785 0-30.108c-118.462-118.502-236.227-146.121-351.9-146.121-51.037 0-101.655 5.376-151.756 10.693l-6.253 0.657c-160.777 17.065-312.692 33.215-469.088-123.221-4.182-4.182-9.638-6.233-15.074-6.233v0z" />
<glyph unicode="&#xe903;" horiz-adv-x="934" d="M279.658 312.817l-11.461-144.017c-1.572 45.943 2.209 94.353 11.461 144.017v0z" />
<glyph unicode="&#xe904;" horiz-adv-x="934" d="M116.499-61.592c-64.229 0-116.499 52.231-116.499 116.46 0 12.973 10.566 23.499 23.559 23.499 12.933 0 23.519-10.506 23.519-23.499 0-38.303 31.12-69.462 69.442-69.462 12.933 0 23.479-10.526 23.479-23.499-0.020-12.993-10.546-23.499-23.499-23.499v0z" />
<glyph unicode="&#xe905;" horiz-adv-x="934" d="M817.823-61.592h-701.324c-13.013 0-23.519 10.506-23.519 23.499 0 12.953 10.486 23.499 23.519 23.499 30.741 0 58.18 20.594 66.756 50.141 7.382 25.608 30.045 42.819 56.27 42.819h661.907c9.133 0 17.908-3.88 24.016-10.685 6.148-6.785 9.093-15.858 8.158-24.951-6.168-59.473-55.991-104.322-115.783-104.322v0zM209.938-14.595h607.886c29.965 0 55.733 18.883 65.363 45.963h-643.641c-5.134 0-9.591-3.582-11.162-8.914-3.92-13.63-10.247-26.105-18.445-37.049v0z" />
<glyph unicode="&#xe906;" horiz-adv-x="934" d="M724.783 31.348c-12.973 0-23.479 10.526-23.479 23.499v586.934c0 12.973 10.486 23.499 23.479 23.499s23.519-10.506 23.519-23.499v-586.934c-0.020-12.973-10.546-23.499-23.519-23.499v0z" />
<glyph unicode="&#xe907;" horiz-adv-x="934" d="M23.559 31.348c-12.993 0-23.559 10.526-23.559 23.499v716.545c0 32.413 26.384 58.777 58.797 58.777h359.128c12.973 0 23.519-10.526 23.519-23.519s-10.526-23.499-23.519-23.499h-359.128c-6.487 0-11.739-5.293-11.739-11.779v-716.506c0-12.993-10.526-23.519-23.499-23.519v0z" />
<glyph unicode="&#xe908;" horiz-adv-x="934" d="M279.658 289.358c-10.725 0-20.136 7.223-22.802 17.669-11.62 40.73-18.146 82.932-19.44 125.592-4.477 148.196 55.534 290.82 164.571 391.322 90.394 83.39 207.948 131.363 330.993 135.044 60.866 1.85 120.658-6.984 177.863-26.145 9.591-2.985 16.555-11.919 16.555-22.464 0-12.973-10.526-23.519-23.479-23.519-2.567 0-5.134 0.418-7.541 1.234-52.032 17.55-106.551 25.568-161.985 23.917-111.724-3.343-218.473-46.898-300.55-122.608-99.029-91.289-153.508-220.821-149.469-355.348 1.134-37.646 6.765-74.874 16.714-110.689 1.671-3.681 2.447-7.8 2.030-12.098-0.119-1.413-0.358-2.527-0.497-3.343-2.328-10.645-11.66-18.306-22.584-18.524-0.119 0-0.279 0-0.279 0h-0.099zM279.379 312.897l-22.584-5.651 0.040-0.219 22.544 5.87z" />
<glyph unicode="&#xe909;" horiz-adv-x="934" d="M268.157 145.321c-12.595 0-23.001 9.988-23.479 22.703-1.592 47.913 2.368 98.054 11.859 149.091 2.368 12.774 14.605 21.191 27.359 18.803 12.794-2.348 21.211-14.625 18.843-27.379-8.815-47.674-12.595-94.433-11.043-138.924 0.418-12.973-9.75-23.837-22.743-24.295-0.219 0-0.497 0-0.796 0v0z" />
<glyph unicode="&#xe90a;" horiz-adv-x="934" d="M279.738 289.995c-5.472 0-10.924 1.95-15.241 5.631-6.407 5.452-9.411 13.908-7.859 22.166 15.381 82.415 44.312 164.134 86.036 242.908 65.065 123.046 157.289 227.984 259.621 295.437 102.909 67.89 211.569 95.249 305.962 77.122 7.263-1.393 13.451-6.128 16.714-12.774 3.223-6.646 3.144-14.446-0.199-21.032-30.005-58.558-64.905-116.241-103.685-171.376-24.912-35.318-51.216-69.482-78.356-101.517-41.009-48.53-84.922-93.876-130.547-134.705-4.974-4.457-11.58-6.566-18.226-5.87l-98.99 10.764 22.504-60.050c3.761-9.969 0.318-21.211-8.357-27.399-73.342-52.171-147.878-91.866-221.558-117.992-2.547-0.856-5.193-1.313-7.82-1.313v0zM848.624 891.831c-163.696 0-351.746-140.197-464.405-353.079-32.373-61.125-56.588-124.021-72.247-187.513 51.574 21.847 103.526 50.699 155.1 86.076l-29.528 78.694c-2.885 7.661-1.552 16.196 3.422 22.663 5.014 6.447 12.973 9.829 21.111 8.974l126.488-13.749c41.227 37.566 80.982 78.913 118.25 123.046 26.225 31 51.733 64.030 75.829 98.214 30.94 44.033 59.334 89.678 84.604 136.098-6.188 0.378-12.396 0.577-18.624 0.577v0z" />
<glyph unicode="&#xe90b;" glyph-name="x23" horiz-adv-x="1018" d="M271.868-52.428c-24.331 0-47.648 7.591-67.38 21.883-34.988 25.394-52.865 69.358-45.571 111.937l38.45 224.171-162.849 158.645c-31.007 30.191-42.381 76.257-28.979 117.402 13.525 41.738 48.909 71.608 92.354 77.938l225.11 32.738 100.612 203.895c19.509 39.414 58.899 63.844 102.689 63.844 43.89 0 83.254-24.43 102.714-63.844l100.538-203.895 225.11-32.688c43.469-6.379 78.853-36.274 92.403-77.987 13.402-41.194 1.978-87.26-29.004-117.451l-162.849-158.596 38.474-224.171c7.344-42.653-10.608-86.592-45.62-111.937-34.716-25.221-82.908-28.584-120.616-8.704l-201.2 105.706-201.299-105.755c-16.171-8.555-34.617-13.13-53.088-13.13zM526.354 893.931c-18.52 0-35.186-10.385-43.494-27.051l-115.918-235.001-259.505-37.708c-18.026-2.596-33.406-15.602-39.018-32.985-5.687-17.432-0.89-36.892 12.215-49.601l187.724-182.927-44.285-258.417c-3.066-18.026 4.476-36.571 19.163-47.327 14.688-10.583 35.013-12.165 51.036-3.66l232.059 121.902 231.984-121.902c16.146-8.506 36.249-6.998 51.060 3.709 14.786 10.731 22.303 29.276 19.237 47.277l-44.335 258.417 187.699 182.877c13.155 12.759 17.951 32.219 12.264 49.651-5.687 17.679-20.696 30.339-39.018 32.985l-259.48 37.708-115.943 235.1c-8.234 16.616-24.85 26.952-43.445 26.952z" />
<glyph unicode="&#xe90c;" glyph-name="nice22" horiz-adv-x="883" d="M648.347 425.546c37.81 38.493 63.649 86.114 75.532 138.232 95.682 40.213 159.199 134.683 159.199 239.294 0 12.633-10.252 22.884-22.862 22.884h-128.885v111.181c0 12.633-10.252 22.862-22.862 22.862h-534.587c-12.633 0-22.862-10.23-22.862-22.862v-111.203h-128.113c-12.655 0-22.906-10.252-22.906-22.884 0-104.457 63.428-198.883 158.934-239.162 11.883-52.184 37.722-99.849 75.576-138.387 36.818-37.545 82.543-63.935 132.831-77.163 4.475-53.309-30.667-103.465-84.086-115.48-0.683-0.176-1.213-0.617-1.896-0.86-1.499-0.463-2.844-1.080-4.167-1.852-1.257-0.728-2.447-1.455-3.527-2.381-1.124-0.948-2.072-2.006-2.976-3.175-0.904-1.146-1.72-2.271-2.403-3.55s-1.124-2.602-1.543-4.012c-0.463-1.477-0.772-2.932-0.904-4.498-0.088-0.683-0.441-1.301-0.441-1.984v-68.631h-64.045c-12.655 0-22.862-10.252-22.862-22.884v-160.147c0-12.633 10.208-22.884 22.862-22.884h480.418c12.611 0 22.862 10.252 22.862 22.884v160.147c0 12.633-10.252 22.884-22.862 22.884h-64.068v68.631c0 0.772-0.353 1.411-0.441 2.183-0.132 1.433-0.441 2.756-0.816 4.123-0.463 1.499-0.948 2.932-1.676 4.299-0.639 1.213-1.411 2.293-2.293 3.351-0.948 1.213-1.94 2.293-3.109 3.263-1.080 0.926-2.249 1.653-3.527 2.359-1.345 0.75-2.668 1.389-4.145 1.852-0.683 0.243-1.213 0.683-1.896 0.86-53.529 12.015-88.627 62.26-84.086 115.568 50.266 13.25 95.859 39.64 132.633 77.141zM441.396 338.638c9.26 0 18.519 0.507 27.691 1.389-0.22-40.125 15.411-78.177 42.021-106.618h-139.18c26.566 28.44 42.197 66.493 42.021 106.618 9.149-0.86 18.321-1.389 27.448-1.389zM835.964 780.188c-7.364-67.683-46.717-127.937-105.118-161.955 0.132 3.439 0.463 6.901 0.463 10.34 0 0.044 0 0.088 0 0.132s0 0.066 0 0.11v151.372h104.655zM47.158 780.188h103.862v-151.372c0-1.102 0.463-2.050 0.595-3.087 0.044-2.447 0.265-4.916 0.353-7.342-58.225 34.062-97.49 94.205-104.81 161.8zM201.22 584.612c-2.668 14.418-3.968 29.19-3.968 43.961 0 0.816-0.397 1.543-0.463 2.337v283.365h488.774v-285.46c0-0.044 0.044-0.066 0.044-0.11s-0.044-0.088-0.044-0.132c0-14.837-1.301-29.675-3.968-44.093-8.73-47.973-31.527-91.868-65.875-126.9-34.371-35.010-77.714-58.6-125.423-68.3-31.725-6.46-65.545-6.504-97.534-0.044-47.797 9.656-91.251 33.29-125.6 68.3-34.415 35.054-57.255 78.993-65.941 127.077zM658.908-18.231h-434.693v114.378h434.693v-114.378zM311.144 141.916v45.747h260.812v-45.747h-260.812zM512.452 61.82h-141.848c-12.611 0-22.862-10.23-22.862-22.862s10.252-22.862 22.862-22.862h141.848c12.655 0 22.862 10.23 22.862 22.862s-10.208 22.862-22.862 22.862z" />
<glyph unicode="&#xe90d;" glyph-name="n21" horiz-adv-x="1022" d="M381.83-61.591c-5.436 0-10.932 2.071-15.054 6.233-8.324 8.324-8.324 21.785 0 30.108 156.416 156.416 140.286 308.291 123.181 469.128l-0.617 6.233c-17.424 163.664-35.385 332.923 135.428 503.696 8.284 8.324 21.785 8.324 30.108 0s8.324-21.785 0-30.108c-156.416-156.416-140.326-308.291-123.241-469.128l0.697-6.233c17.384-163.664 35.385-332.884-135.467-503.696-4.142-4.162-9.578-6.233-15.034-6.233v0zM919.597 573.093c-5.436 0-10.892 2.071-15.054 6.233l-263.607 263.607c-8.324 8.324-8.324 21.825 0 30.108 8.324 8.324 21.785 8.324 30.108 0l263.607-263.607c8.284-8.324 8.284-21.785 0-30.108-4.162-4.162-9.598-6.233-15.054-6.233v0zM844.266 522.932c-5.396 0-10.853 2.071-15.014 6.233l-237.64 237.581c-8.284 8.324-8.284 21.785 0 30.108 8.324 8.284 21.825 8.284 30.108 0l237.64-237.64c8.284-8.284 8.284-21.785 0-30.068-4.162-4.162-9.618-6.213-15.094-6.213v0zM750.616 491.111c-5.476 0-10.892 2.091-15.094 6.253l-176.568 176.568c-8.284 8.284-8.284 21.785 0 30.108 8.324 8.284 21.785 8.284 30.148 0l176.528-176.568c8.324-8.324 8.324-21.825 0-30.108-4.162-4.142-9.618-6.253-15.014-6.253v0zM631.955 484.261c-5.436 0-10.892 2.071-15.054 6.233l-66.708 66.708c-8.284 8.284-8.284 21.785 0 30.108 8.324 8.284 21.825 8.284 30.108 0l66.708-66.708c8.324-8.324 8.324-21.825 0-30.108-4.162-4.162-9.578-6.233-15.054-6.233v0zM365.66 19.156c-5.476 0-10.892 2.071-15.054 6.233l-263.647 263.607c-8.324 8.324-8.324 21.785 0 30.108 8.324 8.284 21.825 8.284 30.148 0l263.607-263.647c8.284-8.284 8.284-21.785-0.040-30.068-4.122-4.182-9.618-6.233-15.014-6.233v0zM415.821 94.447c-5.436 0-10.892 2.091-15.054 6.233l-238.477 238.477c-8.324 8.324-8.324 21.785 0 30.108s21.785 8.324 30.108 0l238.497-238.497c8.284-8.324 8.284-21.785 0-30.108-4.182-4.102-9.618-6.213-15.074-6.213v0zM447.602 188.137c-5.436 0-10.892 2.071-15.054 6.253l-176.568 176.528c-8.324 8.324-8.324 21.785 0 30.148 8.324 8.284 21.785 8.284 30.108 0l176.568-176.607c8.284-8.284 8.284-21.785 0-30.068-4.162-4.182-9.618-6.253-15.054-6.253v0zM454.492 306.758c-5.436 0-10.892 2.091-15.054 6.233l-66.708 66.708c-8.284 8.324-8.284 21.785 0 30.108 8.324 8.324 21.785 8.324 30.108 0l66.708-66.708c8.324-8.284 8.324-21.785 0-30.108-4.162-4.122-9.618-6.233-15.054-6.233v0zM21.307 298.952c-5.436 0-10.892 2.071-15.094 6.233-8.284 8.324-8.284 21.785 0 30.108 170.853 170.773 340.072 152.811 503.736 135.428l6.233-0.657c160.816-17.065 312.692-33.215 469.128 123.221 8.324 8.324 21.745 8.324 30.068 0s8.324-21.785 0-30.108c-118.462-118.502-236.227-146.121-351.9-146.121-51.037 0-101.655 5.376-151.756 10.693l-6.253 0.657c-160.777 17.065-312.692 33.215-469.088-123.221-4.182-4.182-9.638-6.233-15.074-6.233v0z" />
<glyph unicode="&#xe90e;" horiz-adv-x="934" d="M279.658 312.817l-11.461-144.017c-1.572 45.943 2.209 94.353 11.461 144.017v0z" />
<glyph unicode="&#xe90f;" horiz-adv-x="934" d="M116.499-61.592c-64.229 0-116.499 52.231-116.499 116.46 0 12.973 10.566 23.499 23.559 23.499 12.933 0 23.519-10.506 23.519-23.499 0-38.303 31.12-69.462 69.442-69.462 12.933 0 23.479-10.526 23.479-23.499-0.020-12.993-10.546-23.499-23.499-23.499v0z" />
<glyph unicode="&#xe910;" horiz-adv-x="934" d="M817.823-61.592h-701.324c-13.013 0-23.519 10.506-23.519 23.499 0 12.953 10.486 23.499 23.519 23.499 30.741 0 58.18 20.594 66.756 50.141 7.382 25.608 30.045 42.819 56.27 42.819h661.907c9.133 0 17.908-3.88 24.016-10.685 6.148-6.785 9.093-15.858 8.158-24.951-6.168-59.473-55.991-104.322-115.783-104.322v0zM209.938-14.595h607.886c29.965 0 55.733 18.883 65.363 45.963h-643.641c-5.134 0-9.591-3.582-11.162-8.914-3.92-13.63-10.247-26.105-18.445-37.049v0z" />
<glyph unicode="&#xe911;" horiz-adv-x="934" d="M724.783 31.348c-12.973 0-23.479 10.526-23.479 23.499v586.934c0 12.973 10.486 23.499 23.479 23.499s23.519-10.506 23.519-23.499v-586.934c-0.020-12.973-10.546-23.499-23.519-23.499v0z" />
<glyph unicode="&#xe912;" horiz-adv-x="934" d="M23.559 31.348c-12.993 0-23.559 10.526-23.559 23.499v716.545c0 32.413 26.384 58.777 58.797 58.777h359.128c12.973 0 23.519-10.526 23.519-23.519s-10.526-23.499-23.519-23.499h-359.128c-6.487 0-11.739-5.293-11.739-11.779v-716.506c0-12.993-10.526-23.519-23.499-23.519v0z" />
<glyph unicode="&#xe913;" horiz-adv-x="934" d="M279.658 289.358c-10.725 0-20.136 7.223-22.802 17.669-11.62 40.73-18.146 82.932-19.44 125.592-4.477 148.196 55.534 290.82 164.571 391.322 90.394 83.39 207.948 131.363 330.993 135.044 60.866 1.85 120.658-6.984 177.863-26.145 9.591-2.985 16.555-11.919 16.555-22.464 0-12.973-10.526-23.519-23.479-23.519-2.567 0-5.134 0.418-7.541 1.234-52.032 17.55-106.551 25.568-161.985 23.917-111.724-3.343-218.473-46.898-300.55-122.608-99.029-91.289-153.508-220.821-149.469-355.348 1.134-37.646 6.765-74.874 16.714-110.689 1.671-3.681 2.447-7.8 2.030-12.098-0.119-1.413-0.358-2.527-0.497-3.343-2.328-10.645-11.66-18.306-22.584-18.524-0.119 0-0.279 0-0.279 0h-0.099zM279.379 312.897l-22.584-5.651 0.040-0.219 22.544 5.87z" />
<glyph unicode="&#xe914;" horiz-adv-x="934" d="M268.157 145.321c-12.595 0-23.001 9.988-23.479 22.703-1.592 47.913 2.368 98.054 11.859 149.091 2.368 12.774 14.605 21.191 27.359 18.803 12.794-2.348 21.211-14.625 18.843-27.379-8.815-47.674-12.595-94.433-11.043-138.924 0.418-12.973-9.75-23.837-22.743-24.295-0.219 0-0.497 0-0.796 0v0z" />
<glyph unicode="&#xe915;" horiz-adv-x="934" d="M279.738 289.995c-5.472 0-10.924 1.95-15.241 5.631-6.407 5.452-9.411 13.908-7.859 22.166 15.381 82.415 44.312 164.134 86.036 242.908 65.065 123.046 157.289 227.984 259.621 295.437 102.909 67.89 211.569 95.249 305.962 77.122 7.263-1.393 13.451-6.128 16.714-12.774 3.223-6.646 3.144-14.446-0.199-21.032-30.005-58.558-64.905-116.241-103.685-171.376-24.912-35.318-51.216-69.482-78.356-101.517-41.009-48.53-84.922-93.876-130.547-134.705-4.974-4.457-11.58-6.566-18.226-5.87l-98.99 10.764 22.504-60.050c3.761-9.969 0.318-21.211-8.357-27.399-73.342-52.171-147.878-91.866-221.558-117.992-2.547-0.856-5.193-1.313-7.82-1.313v0zM848.624 891.831c-163.696 0-351.746-140.197-464.405-353.079-32.373-61.125-56.588-124.021-72.247-187.513 51.574 21.847 103.526 50.699 155.1 86.076l-29.528 78.694c-2.885 7.661-1.552 16.196 3.422 22.663 5.014 6.447 12.973 9.829 21.111 8.974l126.488-13.749c41.227 37.566 80.982 78.913 118.25 123.046 26.225 31 51.733 64.030 75.829 98.214 30.94 44.033 59.334 89.678 84.604 136.098-6.188 0.378-12.396 0.577-18.624 0.577v0z" />
<glyph unicode="&#xe916;" glyph-name="pen19" d="M940.629 877.451c-52.62 52.542-121.946 82.549-190.254 82.549-57.628 0-110.718-21.4-149.41-60.053l-155.787-156.961c-0.43-0.43-0.978-0.782-1.487-1.213-0.235-0.235-0.352-0.587-0.665-0.822l0.078-0.039-330.588-333.052c-15.258-15.141-26.33-33.998-32.433-54.615l-75.116-272.216c-0.078-0.743-4.969-22.144-4.969-33.020 0-61.892 50.155-112.009 112.087-112.009 12.324 0 36.228 5.868 37.088 5.986l271.238 71.321c20.618 6.103 39.358 17.253 54.576 32.472l488.448 492.243c88.809 88.965 78.832 237.984-22.809 339.429zM512.43 198.553c-2.621 28.873-10.759 57.198-23.004 84.036l302.537 302.497c18.505-58.449 8.998-119.598-31.572-160.13-0.235-0.274-0.548-0.43-0.822-0.665l0.469-0.43-247.334-249.212c0.117 7.981 0.469 15.806-0.274 23.904zM473.386 311.814c-11.932 19.64-25.508 38.536-42.331 55.32-19.561 19.561-42.018 34.858-65.374 47.769l305.001 305.001c23.943-10.602 46.869-25.743 67.135-46.008 17.292-17.214 30.711-36.58 40.962-56.65l-305.393-305.432zM335.595 430.004c-29.616 11.932-60.719 18.74-91.821 19.131l246.513 248.391c37.753 36.815 92.682 47.417 146.789 33.998l-301.48-301.519zM133.37 4.074c-3.482-0.822-14.358-3.599-21.752-4.069-26.33 0.274-47.612 21.713-47.612 48.043 0.352 5.36 2.465 14.593 3.247 17.957l33.685 122.102c36.58 0.978 75.937-13.302 106.883-44.248 31.416-31.455 46.165-71.556 44.522-108.488l-118.972-31.298zM283.914 43.627c-0.743 42.918-18.231 87.596-53.481 122.806-33.333 33.411-76.955 52.659-120.498 54.381l31.885 115.451c2.308 7.629 6.846 15.219 12.48 21.87 64.201 45.969 162.946 32.394 231.49-36.228 72.573-72.534 83.762-178.713 27.895-242.17-3.678-1.956-7.433-3.834-11.502-5.047l-118.268-31.063zM918.134 583.287l-53.872-54.342c0 7.277 0.861 14.202 0.196 21.596-5.634 61.892-34.506 121.75-81.415 168.619-52.112 52.112-121.242 82.080-189.667 82.275l52.972 53.442c26.486 26.447 63.496 41.157 103.988 41.157 51.486 0 104.38-23.278 145.067-63.848 38.184-38.145 60.914-85.483 64.161-133.37 3.052-44.756-11.659-85.718-41.431-115.53z" />
<glyph unicode="&#xe917;" glyph-name="m18" horiz-adv-x="1025" d="M945.146 288.424h-86.239c-1.411 7.661-3.208 15.157-5.117 22.625l153.726 76.863c15.848 7.91 22.265 27.133 14.355 43.009-7.91 15.793-27.105 22.182-43.009 14.327l-146.645-73.295c-55.981 120.702-178.038 204.839-319.621 204.839-172.423 0-316.081-124.546-346.312-288.367h-86.184c-44.171 0-80.099-35.928-80.099-80.099 0-15.71 5.753-30.867 16.18-42.594l111.962-125.984v-23.648c0-44.198 35.928-80.099 80.099-80.099h608.763c44.143 0 80.099 35.928 80.099 80.099v23.648l111.962 125.984c10.427 11.727 16.18 26.884 16.18 42.594 0 44.171-35.928 80.099-80.099 80.099zM826.546 288.424h-18.006l15.987 8.021c0.608-2.711 1.466-5.31 2.019-8.021zM512.622 544.736c129.082 0 240.297-76.918 290.995-187.165l-28.544-14.272c-45.332 99.792-145.677 169.353-262.451 169.353-137.186 0-251.803-95.892-280.955-224.255h-32.969c29.761 146.064 159.202 256.339 313.924 256.339zM659.24 288.424c-24.81 56.479-81.095 96.113-146.618 96.113s-121.836-39.635-146.618-96.113h-34.407c26.469 74.512 97.496 128.169 181.025 128.169 78.993 0 146.95-47.932 176.489-116.193l-23.869-11.976h-6.002zM512.622 320.453c-28.295 0-53.519-12.529-71.138-32.029h-39.22c22.237 38.113 63.117 64.057 110.357 64.057 47.213 0 88.092-25.944 110.33-64.057h-39.22c-17.591 19.499-42.815 32.029-71.11 32.029zM512.622 448.622c-101.396 0-187.165-67.653-214.851-160.198h-33.024c28.571 110.357 128.695 192.226 247.875 192.226 104.024 0 193.609-62.425 233.714-151.651l-28.599-14.327c-34.822 78.771-113.593 133.95-205.115 133.95zM833.018 64.142v-48.043c0-8.851-7.164-16.042-16.014-16.042h-608.763c-8.851 0-16.014 7.191-16.014 16.042v48.043l-128.142 144.184c0 8.823 7.164 16.014 16.014 16.014h864.991c8.851 0 16.014-7.191 16.014-16.014l-128.086-144.184zM255.564 586.002c0.055-0.166 0.138-0.36 0.221-0.553 0 0 0.028 0 0.083 0 2.683-5.144 8.021-8.657 14.189-8.657 8.878 0 16.097 7.219 16.097 16.125 0 1.383-0.249 2.711-0.553 3.983 0.028 0.221 0.028 0.443-0.028 0.636-12.004 28.239-0.608 59.244 13.414 92.656 15.157 36.067 31.42 76.144 13.525 116.857-2.296 5.919-7.966 10.068-14.631 10.068-8.685 0-15.71-7.053-15.71-15.738 0-1.881 0.415-3.706 1.023-5.366 0.028-0.083 0.028-0.166 0.055-0.194 0.028-0.111 0.055-0.221 0.111-0.304 0.028-0.138 0.083-0.249 0.138-0.387 12.917-29.124 0.415-58.968-13.719-92.684-14.936-35.541-31.448-74.927-14.825-115.059 0.221-0.498 0.387-0.94 0.608-1.383zM645.743 590.649c0.083-0.194 0.166-0.387 0.221-0.553 0 0 0.055 0 0.083 0 2.683-5.144 8.021-8.685 14.189-8.685 8.878 0 16.125 7.247 16.125 16.125 0 1.383-0.249 2.738-0.581 4.010 0.083 0.221 0.083 0.443 0 0.636-12.004 28.239-0.581 59.244 13.414 92.628 15.157 36.094 31.42 76.116 13.525 116.885-2.268 5.891-7.938 10.040-14.604 10.040-8.657 0-15.682-7.053-15.682-15.71 0-1.881 0.387-3.734 1.023-5.393 0.028-0.055 0.028-0.138 0.028-0.194 0.028-0.083 0.083-0.194 0.111-0.277 0.028-0.138 0.083-0.249 0.138-0.415 12.944-29.124 0.443-58.968-13.691-92.656-14.963-35.541-31.448-74.954-14.797-115.087 0.138-0.47 0.304-0.913 0.498-1.355zM481.147 728.941c0.111-0.221 0.166-0.415 0.249-0.581 0 0 0.055 0 0.083 0 2.683-5.144 8.021-8.657 14.189-8.657 8.878 0 16.097 7.247 16.097 16.125 0 1.383-0.221 2.738-0.553 4.038 0.055 0.221 0.055 0.387-0.028 0.581-12.004 28.239-0.581 59.3 13.414 92.684 15.157 36.067 31.42 76.116 13.525 116.857-2.268 5.864-7.938 10.012-14.576 10.012-8.657 0-15.682-7.053-15.682-15.682 0-1.908 0.387-3.734 1.023-5.421 0-0.083 0-0.111 0.055-0.194 0-0.111 0.028-0.194 0.083-0.277 0.028-0.138 0.083-0.277 0.138-0.387 12.944-29.152 0.415-58.996-13.691-92.684-14.963-35.541-31.475-74.954-14.825-115.087 0.138-0.443 0.304-0.885 0.498-1.328z" />
<glyph unicode="&#xe918;" glyph-name="eye17" horiz-adv-x="1637" d="M1635.473 459.293c-0.565 2.165-0.235 4.423-1.035 6.541-0.282 0.847-1.082 1.365-1.412 2.165-0.518 1.223-0.423 2.635-1.035 3.764-148.692 284.444-472.145 488.237-813.384 488.237s-664.692-203.417-813.337-487.814c-0.659-1.223-0.565-2.588-1.082-3.811-0.329-0.847-1.082-1.27-1.412-2.165-0.753-2.070-0.518-4.423-0.988-6.588-0.894-3.811-1.788-7.529-1.788-11.434 0-3.858 0.894-7.576 1.788-11.434 0.518-2.212 0.235-4.47 0.988-6.635 0.329-0.847 1.035-1.27 1.412-2.117 0.518-1.27 0.423-2.588 1.082-3.764 148.645-284.444 472.098-488.237 813.384-488.237 341.239 0 664.692 203.417 813.337 487.861 0.659 1.129 0.565 2.588 1.035 3.811 0.329 0.8 1.082 1.27 1.412 2.165 0.8 2.070 0.471 4.423 1.035 6.541 0.894 3.858 1.741 7.529 1.741 11.434s-0.894 7.623-1.741 11.481zM818.607 38.532c-287.691 0-569.359 163.561-709.723 409.609 141.116 246.424 422.361 409.421 709.723 409.421 287.644 0 569.312-163.608 709.676-409.704-141.116-246.377-422.361-409.327-709.676-409.327zM818.607 652.875c-0.141 0-0.235-0.047-0.329-0.047-112.931-0.235-204.499-91.803-204.499-204.781 0-14.21 11.434-25.645 25.598-25.645 14.069 0 25.504 11.434 25.504 25.645 0 84.651 68.935 153.586 153.68 153.586v0c14.069 0 25.504 11.481 25.504 25.645 0.094 14.116-11.34 25.598-25.456 25.598zM817.431 806.508c-198.099 0-358.696-160.597-358.696-358.696 0-198.052 160.597-358.649 358.696-358.649 198.052 0 358.649 160.597 358.649 358.649 0 198.099-160.597 358.696-358.649 358.696zM817.431 140.405c-169.584 0-307.454 137.917-307.454 307.407s137.917 307.407 307.454 307.407c169.49 0 307.407-137.917 307.407-307.407s-137.917-307.407-307.407-307.407z" />
<glyph unicode="&#xe919;" glyph-name="close16" d="M512 960c-282.293 0-512-229.665-512-512s229.707-512 512-512c282.335 0 512 229.665 512 512s-229.665 512-512 512zM798.318 791.311l-286.318-286.276-286.276 286.276c77.628 64.832 177.461 104.027 286.276 104.027 108.858 0 208.69-39.196 286.318-104.027zM64.662 448c0 112.544 42.119 215.258 111.019 293.988l293.903-293.903c0-0.042 0-0.127 0-0.169l-293.903-293.903c-68.857 78.73-111.019 181.444-111.019 293.988zM225.724 104.689l286.276 286.276 286.318-286.276c-77.628-64.832-177.461-104.027-286.318-104.027-108.815 0-208.648 39.196-286.276 104.027zM848.361 154.012l-293.903 293.903c0 0.042 0 0.127 0 0.169l293.903 293.903c68.899-78.688 110.976-181.401 110.976-293.988s-42.119-215.258-110.976-293.988z" />
<glyph unicode="&#xe91a;" glyph-name="tanjia15" horiz-adv-x="1010" d="M951.917 498.783h-389.134v389.134c0 32.010-25.904 57.915-57.867 57.915s-57.915-25.904-57.915-57.915v-389.134h-389.087c-32.010 0-57.915-25.904-57.915-57.867 0-32.010 25.904-57.915 57.915-57.915h389.087v-389.087c0-32.010 25.904-57.915 57.867-57.915s57.867 25.904 57.867 57.915v389.087h389.134c31.963 0 57.867 25.904 57.867 57.915 0.048 31.963-25.856 57.867-57.819 57.867z" />
<glyph unicode="&#xe91b;" horiz-adv-x="1365" d="M1339.422 538.502l-213.339 341.322c-31.179 49.887-85.883 80.175-144.711 80.175h-810.694c-94.264 0-170.678-76.381-170.678-170.645v-682.678c0-94.264 76.414-170.678 170.678-170.678h810.694c58.828 0 113.532 30.321 144.711 80.208l213.339 341.355c34.644 55.331 34.644 125.575 0 180.939z" />
<glyph unicode="&#xe91c;" horiz-adv-x="1365" d="M981.372 575.984c-70.706 0-127.984-57.277-127.984-127.984s57.277-128.016 127.984-128.016c70.739 0 128.016 57.31 128.016 128.016s-57.31 127.984-128.016 127.984zM981.372 362.678c-47.115 0-85.322 38.207-85.322 85.322s38.207 85.322 85.322 85.322c47.148 0 85.322-38.207 85.322-85.322s-38.207-85.322-85.322-85.322z" />
<glyph unicode="&#xe91d;" glyph-name="xingactive13" horiz-adv-x="1057" d="M1053.067 578.267c-9.144 26.385-32.618 45.696-60.868 49.91l-275.042 40.894-119.59 248.197c-12.516 26.079-39.463 42.733-69.067 42.733-29.578 0-56.526-16.654-69.093-42.758l-119.565-248.197-275.042-40.868c-28.25-4.215-51.724-23.525-60.842-49.91-9.093-26.437-2.222-55.581 17.727-75.478l201.556-201.25-46.743-279.18c-4.751-28.097 7.458-56.321 31.341-72.771 13.103-8.991 28.505-13.589 43.959-13.589 12.669 0 25.364 3.091 36.909 9.272l239.793 129.092 239.793-129.092c11.545-6.181 24.265-9.272 36.909-9.272 15.428 0 30.83 4.598 44.010 13.589 23.882 16.449 36.015 44.674 31.315 72.771l-46.768 279.18 201.607 201.25c19.898 19.898 26.743 49.042 17.701 75.478z" />
<glyph unicode="&#xe91e;" glyph-name="xing11" horiz-adv-x="1057" d="M1053.067 578.267c-9.144 26.385-32.618 45.696-60.868 49.91l-275.042 40.894-119.59 248.197c-12.516 26.079-39.463 42.733-69.067 42.733-29.578 0-56.526-16.654-69.093-42.758l-119.565-248.197-275.042-40.868c-28.25-4.215-51.724-23.525-60.842-49.91-9.093-26.437-2.222-55.581 17.727-75.478l201.556-201.25-46.743-279.18c-4.751-28.097 7.458-56.321 31.341-72.771 13.103-8.991 28.505-13.589 43.959-13.589 12.669 0 25.364 3.091 36.909 9.272l239.793 129.092 239.793-129.092c11.545-6.181 24.265-9.272 36.909-9.272 15.428 0 30.83 4.598 44.010 13.589 23.882 16.449 36.015 44.674 31.315 72.771l-46.768 279.18 201.607 201.25c19.898 19.898 26.743 49.042 17.701 75.478zM779.124 353.416c-16.909-16.858-24.597-40.562-20.689-63.856l46.743-279.18-239.793 129.066c-11.494 6.181-24.214 9.272-36.909 9.272s-25.389-3.091-36.909-9.272l-239.793-129.066 46.768 279.18c3.882 23.295-3.78 46.998-20.689 63.856l-201.556 201.25 275.042 40.97c25.108 3.729 46.768 19.463 57.573 41.864l119.565 248.171 119.59-248.171c10.804-22.401 32.413-38.109 57.547-41.864l275.068-40.97-201.556-201.25z" />
<glyph unicode="&#xe91f;" glyph-name="ping12" horiz-adv-x="1170" d="M585.125 777.148c-218.069 0-402.304-117.277-402.304-256.023 0-10.088 8.212-18.27 18.301-18.27 10.119 0 18.301 8.181 18.301 18.27 0 116.908 170.887 219.453 365.703 219.453 10.119 0 18.301 8.181 18.301 18.331 0 10.058-8.181 18.239-18.301 18.239zM585.125 960c-323.166 0-585.125-196.508-585.125-438.905 0-150.895 101.653-283.951 256.3-362.966 0-1.015-0.277-1.63-0.277-2.707 0-65.605-48.965-136.193-70.496-173.255h0.062c-1.722-3.968-2.707-8.397-2.707-13.103 0-18.27 14.825-33.095 33.156-33.095 3.414 0 9.473 0.892 9.319 0.492 114.294 18.67 221.975 123.675 246.98 154.155 36.54-5.352 74.217-8.335 112.848-8.335 323.135 0 585.125 196.508 585.125 438.844-0.031 242.367-262.051 438.875-585.187 438.875zM585.125 155.453c-33.525 0-67.912 2.522-102.237 7.566-3.537 0.554-7.136 0.769-10.611 0.769-21.745 0-42.537-9.658-56.532-26.728-15.655-19.1-60.192-61.576-112.817-92.887 14.241 32.695 25.405 69.45 26.174 107.22 0.215 2.338 0.308 4.675 0.308 6.736 0 27.466-15.379 52.626-39.831 65.113-135.547 69.265-216.439 180.576-216.439 297.853 0 201.675 229.664 365.734 511.985 365.734s512.015-164.059 512.015-365.734c0-201.583-229.664-365.642-512.015-365.642z" />
<glyph unicode="&#xe920;" glyph-name="heart10" horiz-adv-x="1234" d="M617.912-64l-42.908 51.84c-6.276 7.694-12.372 15.178-18.738 22.42-42.365 48.068-91.429 92.213-149.907 134.97-51.93 37.929-99.606 68.315-145.773 92.877-8.388 4.466-16.777 8.841-25.196 13.186-21.333 11.014-43.361 22.42-64.754 35.666-79.298 49.003-131.53 121.482-155.338 215.476-12.341 48.611-17.139 94.114-14.635 138.983 4.224 74.953 29.45 140.915 74.953 196.074 46.559 56.456 105.248 94.687 174.408 113.607 29.782 8.087 64.181 10.32 100.119 8.117 49.909-3.078 96.558-17.35 138.561-42.425 33.795-20.277 62.793-45.111 86.239-73.837 14.273-17.501 27.821-35.515 41.339-53.529 3.561 5.944 7.302 11.889 11.285 17.803 42.033 62.22 100.722 106.395 174.438 131.349 40.132 13.609 77.488 19.432 115.568 17.079 42.455-2.414 80.385-15.117 108.719-25.92 40.494-15.479 76.070-37.205 105.822-64.664 41.279-38.201 70.488-86.601 86.902-143.992 13.548-47.404 18.135-99.485 14.001-159.17-3.923-57.392-22.299-111.012-54.616-159.291-22.691-33.916-51.628-65.116-88.532-95.442-53.62-44.115-111.344-78.393-165.718-108.869-67.893-38.201-133.462-86.933-194.776-144.777-16.596-15.661-32.166-32.498-48.671-50.331-7.785-8.419-15.6-16.868-23.506-25.165l-39.287-42.033zM323.138 869.567c-18.799 0-34.912-1.901-49.305-5.793-51.417-14.061-93.42-41.49-128.362-83.855-33.463-40.585-51.266-87.536-54.435-143.63-1.961-35.515 1.931-72.057 11.979-111.645 18.105-71.423 55.762-123.957 115.176-160.679 18.467-11.436 38.050-21.545 58.81-32.256 8.751-4.526 17.501-9.083 26.191-13.699 49.939-26.584 101.145-59.202 156.575-99.696 62.763-45.895 115.81-93.511 162.097-145.531 14.454 15.6 29.42 31.412 45.413 46.499 66.686 62.914 138.199 116.021 212.579 157.873 50.784 28.455 104.343 60.228 152.532 99.877 29.963 24.622 53.107 49.456 70.819 75.889 23.717 35.455 36.662 73.143 39.529 115.146 3.38 49.064-0.121 90.946-10.742 128.091-11.949 41.792-32.015 75.285-61.284 102.382-21.484 19.825-46.589 35.093-76.673 46.589-32.981 12.583-58.146 18.799-81.592 20.157-26.342 1.358-52.292-2.595-81.32-12.462-54.586-18.467-97.795-50.874-128.483-96.287-8.841-13.096-16.717-27.489-25.045-42.757-4.194-7.694-8.419-15.419-12.764-23.023-1.056-1.901-2.384-4.013-4.164-6.729l-35.214-54.223-76.492 98.55c-14.454 19.342-28.877 38.714-44.115 57.422-16.777 20.549-37.839 38.472-62.552 53.348-29.42 17.562-62.28 27.579-97.645 29.752-7.212 0.422-14.363 0.694-21.514 0.694z" />
<glyph unicode="&#xe921;" glyph-name="heartactive09" horiz-adv-x="1223" d="M617.882-64l-42.878 51.84c-6.276 7.694-12.402 15.178-18.769 22.42-42.365 48.068-91.429 92.213-149.907 134.97-51.93 37.929-99.606 68.315-145.773 92.877-8.358 4.466-16.807 8.841-25.196 13.186-21.333 11.014-43.361 22.42-64.785 35.666-79.298 49.003-131.561 121.482-155.338 215.476-12.341 48.611-17.139 94.114-14.604 138.984 4.224 74.953 29.45 140.945 74.953 196.104 46.62 56.456 105.309 94.657 174.469 113.577 29.782 8.087 64.181 10.32 100.119 8.117 49.939-3.078 96.558-17.35 138.561-42.425 33.795-20.277 62.793-45.111 86.239-73.837 14.242-17.501 27.821-35.515 41.309-53.529 3.561 5.944 7.302 11.889 11.285 17.803 42.063 62.22 100.722 106.395 174.438 131.349 40.162 13.609 77.488 19.432 115.568 17.079 42.455-2.414 80.415-15.117 108.688-25.92 40.494-15.479 76.1-37.205 105.822-64.664 41.279-38.201 70.518-86.601 86.902-143.992 13.548-47.404 18.165-99.485 14.031-159.17-3.953-57.392-22.329-111.012-54.646-159.291-22.691-33.916-51.659-65.116-88.532-95.442-53.62-44.115-111.314-78.393-165.688-108.869-67.893-38.201-133.462-86.933-194.806-144.777-16.566-15.661-32.166-32.498-48.671-50.331-7.815-8.419-15.63-16.868-23.536-25.165l-39.257-42.033z" />
<glyph unicode="&#xe922;" glyph-name="sou" d="M868.629 121.722l-184.999 184.999c46.972 54.922 72.265 124.296 72.265 197.284 0 168.378-137.304 305.682-305.682 305.682s-305.682-137.304-305.682-305.682c0-168.378 137.304-305.682 305.682-305.682 44.805 0 88.164 9.394 129.355 28.906 13.008 5.781 18.066 20.957 12.285 33.965-6.504 12.285-20.957 18.066-33.965 12.285-33.965-15.898-70.097-23.848-107.675-23.848-140.195 0-255.097 114.179-255.097 255.097 0 140.195 114.179 255.097 255.097 255.097 140.195 0 255.097-114.179 255.097-255.097 0-67.929-26.738-132.246-74.433-179.941-10.117-10.117-10.117-26.016 0-36.133l202.343-202.343c5.059-5.059 11.562-7.227 18.066-7.227s13.008 2.168 18.066 7.227c8.672 9.394 8.672 26.016-0.723 35.41zM259.433 583.498c0-15.166 12.295-27.461 27.461-27.461s27.461 12.295 27.461 27.461c0 15.166-12.295 27.461-27.461 27.461s-27.461-12.295-27.461-27.461zM240.644 486.662c0-15.166 12.295-27.461 27.461-27.461s27.461 12.295 27.461 27.461c0 15.166-12.295 27.461-27.461 27.461s-27.461-12.295-27.461-27.461zM284.003 405.002c0-0.002 0-0.003 0-0.005 0-15.166 12.295-27.461 27.461-27.461s27.461 12.295 27.461 27.461c0 0.002 0 0.004 0 0.006s0 0.003 0 0.005c0 15.166-12.295 27.461-27.461 27.461s-27.461-12.295-27.461-27.461c0-0.002 0-0.004 0-0.006z" />
<glyph unicode="&#xe923;" glyph-name="new41" horiz-adv-x="512" d="M0 960l512-512-511.963-511.963z" />
<glyph unicode="&#xe924;" glyph-name="new42" horiz-adv-x="1191" d="M500.462 113.66c-109.341 167.623-264.802 299.915-353.069 482.327-60.815 125.725 8.942 236.005 150.301 249.825 153.584 15.008 241.258-188.322 259.736-308.826 6.848-44.712 69.695-54.655 97.866-25.827 78.293 79.95 72.884 225.468 165.779 285.501 106.684 68.882 242.602-29.735 251.92-141.609 5.097-61.127-47.87-115.657-86.422-155.492-176.128-182.038-432.706-274.745-587.198-479.576-45.525-60.346 56.25-118.596 101.118-59.126 182.475 241.945 664.021 349.692 689.629 694.163 12.225 164.278-173.22 298.883-325.022 275.245-83.046-12.945-145.799-50.246-192.074-120.441-44.806-67.975-41.648-155.711-100.555-215.869 32.612-8.598 65.223-17.228 97.866-25.889-23.013 150.301-119.222 333.808-276.621 379.834-136.982 40.116-307.669-21.512-369.797-155.711-121.254-262.050 252.201-548.708 375.456-737.655 41.054-62.972 142.516-4.346 101.087 59.126v0z" />
<glyph unicode="&#xe925;" glyph-name="new43" horiz-adv-x="1191" d="M449.903 84.081c-117.096 187.384-608.96 608.991-269.367 784.619 222.497 128.852 409.881-117.064 433.301-316.142 105.402 93.676 46.838 269.304 234.222 316.142 152.24 35.176 304.48-93.676 281.061-245.916-35.144-222.466-538.702-433.301-679.217-632.379zM500.462 113.66c-109.341 167.623-264.802 299.915-353.069 482.327-60.815 125.725 8.942 236.005 150.27 249.825 153.584 15.008 241.258-188.322 259.736-308.826 6.848-44.712 69.663-54.655 97.866-25.827 78.262 79.95 72.884 225.468 165.779 285.501 106.715 68.882 242.602-29.735 251.951-141.609 5.097-61.127-47.901-115.657-86.422-155.492-176.128-182.038-432.706-274.745-587.198-479.576-45.525-60.346 56.25-118.596 101.118-59.126 182.475 241.945 664.021 349.692 689.598 694.163 12.225 164.278-173.189 298.883-325.022 275.245-83.014-12.945-145.768-50.246-192.074-120.441-44.806-67.975-41.648-155.711-100.524-215.869 32.612-8.598 65.223-17.228 97.835-25.889-23.013 150.301-119.222 333.808-276.621 379.834-136.982 40.116-307.669-21.481-369.797-155.711-121.254-262.050 252.17-548.708 375.456-737.655 41.085-62.972 142.516-4.346 101.118 59.126v0z" />
<glyph unicode="&#xe926;" glyph-name="new44" horiz-adv-x="1382" d="M647.093 207.632c-246.57-8.209-589.157 111.387-424.030 422.402 119.596 225.305 545.145 213.805 756.708 174.964 201.184-36.924 311.739-198.544 244.256-393.941-73.848-213.95-318.935-295.031-523.952-282.879-85.385 5.027-84.914-127.48 0-132.507 284.181-16.889 562.142 120.645 658.521 399.872 94.86 274.67-114.533 495.202-372.748 542.613-310.618 56.995-770.703 18.914-909.756-311.666-160.679-382.115 268.124-561.455 571.002-551.365 85.24 2.893 85.493 135.328 0 132.507v0zM938.29 581.068c105.022-76.922 60.25-171.565-26.653-240.422-66.977-53.053 27.485-146.213 93.666-93.739 73.486 58.261 123.177 132.435 130.843 227.077 7.631 94.1-61.082 170.299-130.988 221.508-69.038 50.594-135.002-64.481-66.868-114.425v0zM256.19 141.379c-3.363-68.315-144.441-72.401-192.142-72.908-85.421-0.759-85.493-133.303 0-132.507 133.7 1.266 316.585 42.747 324.649 205.415 4.267 85.493-128.276 85.059-132.507 0v0z" />
<glyph unicode="&#xe927;" glyph-name="new45" horiz-adv-x="973" d="M959.65 545.623c-37.868 64.663-148.503 52.564-210.599 51.993-181.32-1.655-178.438 215.564-260.851 336.729-26.995 39.694-81.614 31.647-97.794-12.784-40.693-111.606-59.613-224.068-65.805-340.696-90.004-16.922-180.179-14.582-271.324-25.283-50.624-5.936-75.85-69.771-26.995-99.706 93.285-57.187 179.808-128.642 177.068-247.268-1.912-82.784-20.717-150.701-3.168-233.542 7.163-33.787 50.281-49.168 78.589-31.989 74.68 45.316 140.256 146.192 229.404 158.12 45.544 6.107 112.49-46.885 154.753-63.922 44.032-17.778 79.588-25.226 126.473-27.053 35.699-1.398 59.584 35.1 51.594 67.717-16.152 65.976-45.030 126.844-65.748 191.365-24.056 74.851 75.65 92.23 121.879 117.285 55.132 29.849 98.422 97.766 62.523 159.033zM796.051 455.106c-36.812-17.464-76.192-31.419-102.389-64.036-59.413-74.052-20.404-169.792 14.011-255.8-76.135 28.822-143.11 80.501-231.716 68.63-71.312-9.531-124.875-63.065-178.866-111.663 3.396 87.236 26.539 171.989-11.728 258.625-17.921 40.664-48.74 77.077-84.239 109.237 47.798 3.168 95.454 7.134 142.939 15.695 31.048-20.033 84.468-5.821 85.267 42.833 1.341 83.583 9.189 163.656 26.311 242.674 31.904-79.988 57.529-161.288 122.821-226.294 55.931-55.675 155.267-43.632 226.722-44.545 95.74-1.199 49.825-7.362-9.132-35.357z" />
<glyph unicode="&#xe928;" glyph-name="new46" horiz-adv-x="966" d="M359.794 526.426c0 147.623 18.461 295.181 73.811 433.574 73.779-92.24 83.010-230.632 147.591-322.904 64.581-73.779 55.35-64.549 156.821-83.010 27.691 0 212.203 9.23 221.402-27.659 46.12-101.471-175.282-129.162-202.941-184.512-55.35-83.010 46.12-212.203 64.581-322.904-119.931-9.23-212.203 101.471-313.674 101.471-110.701 0-193.711-138.392-285.983-184.512-36.89 110.701 27.691 230.632 0 341.333-27.691 83.042-138.392 184.544-221.402 230.664 110.701 18.461 230.632 0 350.564 36.89z" />
<glyph unicode="&#xe929;" glyph-name="new47" horiz-adv-x="1172" d="M1171.688-64h-1171.688l585.844 1024 585.844-1024zM92.673-10.212h986.317l-493.146 861.996-493.171-861.996zM816.72 156.318h-461.701l230.851 403.516 230.851-403.516zM447.692 210.081h276.356l-138.152 241.511-138.204-241.511z" />
<glyph unicode="&#xe92a;" glyph-name="new48" horiz-adv-x="1172" d="M1171.688-64h-1171.688l585.844 1024 585.844-1024zM92.673-10.212h986.317l-493.146 861.996-493.171-861.996zM816.72 156.318h-461.701l230.851 403.516 230.851-403.516zM447.692 210.081h276.356l-138.152 241.511-138.204-241.511z" />
<glyph unicode="&#xe92b;" glyph-name="new49" d="M512-64c-282.314 0-512 229.686-512 512 0 282.344 229.686 512 512 512s512-229.656 512-512c0.030-282.314-229.656-512-512-512zM512 896.745c-247.419 0-448.715-201.356-448.715-448.745s201.296-448.655 448.715-448.655c247.419 0 448.715 201.265 448.715 448.655s-201.296 448.745-448.715 448.745z" />
<glyph unicode="&#xe92c;" glyph-name="new50" d="M512-64c-282.314 0-512 229.686-512 512 0 282.344 229.686 512 512 512s512-229.656 512-512c0.030-282.314-229.656-512-512-512zM512 896.745c-247.419 0-448.715-201.356-448.715-448.745s201.296-448.655 448.715-448.655c247.419 0 448.715 201.265 448.715 448.655s-201.296 448.745-448.715 448.745z" />
<glyph unicode="&#xe92d;" glyph-name="new51" d="M1024.036 906.769l-53.302 53.231-458.716-458.751-458.751 458.751-53.266-53.231 458.751-458.751-458.751-458.751 53.266-53.266 458.751 458.716 458.716-458.716 53.302 53.266-458.751 458.751z" />
<glyph unicode="&#xe92e;" glyph-name="new52" horiz-adv-x="1039" d="M1038.763 906.004l-54.069 53.996-465.312-465.349-465.349 465.349-54.033-53.996 465.349-465.349-465.349-465.349 54.033-54.033 465.349 465.312 465.312-465.312 54.069 54.033-465.349 465.349z" />
<glyph unicode="&#xe92f;" glyph-name="new53" d="M1023.964-64h-1023.964v1024h1023.964v-1024zM74.94 10.904h874.12v874.156h-874.12v-874.156z" />
<glyph unicode="&#xe930;" glyph-name="new54" d="M1023.964-64h-1023.964v1024h1023.964v-1024zM74.94 10.904h874.12v874.156h-874.12v-874.156z" />
<glyph unicode="&#xe931;" horiz-adv-x="1694" d="M340.59 151.481v152.784c-15.782 0-32.149-0.615-49.117-1.815v30.934c16.968-1.229 33.936-1.815 50.933-1.815h283.782c21.828 0 43.028 0.586 63.669 1.815v-30.934c-20.628 1.201-41.841 1.815-63.669 1.815h-143.721v-129.126l25.473 7.262c0-10.921 0.6-20.013 1.815-27.275-9.721-2.459-18.812-4.274-27.289-5.475 0-21.8 0.6-43.028 1.815-63.655h-34.565c1.186 20.628 1.815 40.011 1.815 58.209-13.366-2.459-33.064-6.361-59.124-11.836-26.088-5.446-54.292-11.808-84.583-19.098-3.631 13.351-7.905 24.258-12.737 32.75 9.721 1.201 24.859 3.016 45.501 5.461zM629.818 440.71v-32.75c0-13.351 0.6-28.504 1.815-45.486h-278.321c1.186 16.982 1.815 32.135 1.815 45.486v32.75c0 13.323-0.615 27.889-1.815 43.671h278.321c-1.215-15.782-1.815-30.362-1.815-43.671zM451.547 273.359v30.906h-80.037v-30.906h80.037zM451.547 216.966v30.934h-80.037v-30.934h80.037zM451.547 167.849v25.459h-80.037v-36.38l80.037 10.921zM595.253 435.235v25.488h-207.362v-25.488h207.362zM595.253 386.117v23.644h-207.362v-23.644h207.362zM500.664 275.175c21.828-1.229 41.841-1.815 60.024-1.815h90.944c-13.366-50.947-29.104-90.344-47.302-118.233 30.305-19.398 59.41-31.52 87.313-36.38-10.921-8.491-17.597-18.197-20.013-29.119-30.334 9.721-58.838 25.459-85.498 47.302-15.782-16.954-37.009-34.565-63.669-52.734-4.86 7.262-13.366 14.552-25.473 21.828 25.473 8.491 47.302 23.644 65.485 45.486-20.628 20.599-36.38 52.734-47.302 96.405h-14.552v27.26zM580.701 171.48c14.552 20.599 25.473 46.072 32.75 76.42h-69.13c4.832-29.133 16.968-54.592 36.38-76.42z" />
<glyph unicode="&#xe932;" horiz-adv-x="1694" d="M782.616 78.706c-10.921 7.29-22.457 12.737-34.565 16.382 14.566 20.628 30.934 50.933 49.117 90.93 10.921-7.262 22.429-13.351 34.565-18.169-8.505-10.921-24.873-40.655-49.117-89.143zM824.458 238.794c3.645 2.402 5.461 8.463 5.461 18.169v49.146c-19.412-4.889-40.64-10.921-63.669-18.197-2.444 10.921-6.676 23.029-12.737 36.38 18.183 1.201 43.657 5.475 76.406 12.737v60.024c-24.273 0-46.701-0.615-67.3-1.815v30.934c19.384-1.229 41.841-1.844 67.3-1.844 0 32.75-0.629 58.823-1.815 78.236h34.551c-1.215-15.782-1.815-41.827-1.815-78.236 14.566 0 32.121 0.615 52.748 1.844v-30.934c-20.628 1.201-38.196 1.815-52.748 1.815v-52.734c16.982 3.631 34.565 7.876 52.748 12.737v-29.119c-18.183-4.86-35.78-9.721-52.748-14.552v-54.549c0-25.488-4.26-40.655-12.737-45.486-8.491-4.86-25.459-9.721-50.933-14.552-3.631 13.323-9.092 26.045-16.368 38.196 25.459-1.244 40.011-0.658 43.657 1.801zM871.745 162.374c10.921 3.659 21.199 7.876 30.934 12.765 16.968-37.61 27.289-64.27 30.92-80.051-12.136-3.659-23.043-7.29-32.75-10.921-4.846 20.642-14.552 46.659-29.104 78.207zM969.98 300.634c-8.491 8.463-23.043 18.783-43.657 30.934 7.276 9.692 13.323 18.783 18.183 27.275 14.552-8.491 26.66-16.368 36.38-23.644 4.832 15.753 7.276 37.581 7.276 65.499-14.566 0-32.149-1.229-52.748-3.659l-1.815 29.119c19.384 1.172 37.567 1.815 54.578 1.815 0 29.090-0.629 53.935-1.815 74.576 8.463-3.631 21.828-6.090 40.011-7.29-3.631-18.169-5.461-40.626-5.461-67.286l80.051 3.631c-3.645-19.398-6.090-46.373-7.276-80.938-1.215-34.565 1.815-61.568 9.092-80.966s14.238-28.504 20.913-27.275c6.647 1.201 11.822 16.982 15.467 47.302 10.921-7.262 22.429-12.151 34.565-14.552-9.721-30.319-17.911-49.417-24.559-57.294-6.676-7.905-14.266-11.836-22.743-11.836-8.505 0-18.812 4.546-30.92 13.652-12.136 9.106-21.228 28.79-27.289 59.109-6.075 30.291-7.905 71.56-5.461 123.708l-41.841-1.815c-1.215-29.119-5.446-57.623-12.737-85.512 25.473-19.398 44.257-33.95 56.393-43.642-7.276-10.921-13.952-21.242-20.013-30.934-20.628 21.828-36.38 35.766-47.302 41.855-14.552-32.75-37.596-64.298-69.116-94.589-7.276 10.921-17.583 18.769-30.92 23.644 33.936 25.459 58.209 55.164 72.761 89.114zM975.44 169.664c12.108 3.631 22.429 7.876 30.934 12.737 14.552-30.319 26.66-57.566 36.38-81.867-13.366-3.631-24.873-7.876-34.565-12.737-9.721 29.119-20.642 56.408-32.75 81.867zM1077.306 182.401c9.692 3.631 19.384 8.463 29.104 14.552 26.66-43.642 44.857-75.163 54.578-94.589l-32.75-16.368c-8.491 20.628-25.459 52.734-50.933 96.405z" />
<glyph unicode="&#xe933;" horiz-adv-x="1694" d="M1433.391 316.944v-229.762h-229.719z" />
<glyph unicode="&#xe934;" horiz-adv-x="1694" d="M1515.258-64h-1336.572c-98.535 0-178.686 80.166-178.686 178.658v350.11c0 98.535 80.151 178.686 178.686 178.686h1336.572c98.535 0 178.686-80.151 178.686-178.686v-350.11c0-98.492-80.151-178.658-178.686-178.658zM178.686 629.159c-90.644 0-164.391-73.762-164.391-164.391v-350.11c0-90.63 73.747-164.363 164.391-164.363h1336.572c90.644 0 164.391 73.733 164.391 164.363v350.11c0 90.63-73.747 164.391-164.391 164.391h-1336.572z" />
<glyph unicode="&#xe935;" horiz-adv-x="1694" d="M417.825 932.883h-51.633v-196.169h-29.69v196.169h-51.619v24.53h132.942v-24.53z" />
<glyph unicode="&#xe936;" horiz-adv-x="1694" d="M583.031 736.714h-29.69v103.252h-73.561v-103.252h-29.69v220.699h29.69v-92.945h73.561v92.945h29.69v-220.699z" />
<glyph unicode="&#xe937;" horiz-adv-x="1694" d="M750.81 736.714h-131.642v220.699h125.195v-24.544h-95.504v-68.401h87.771v-24.516h-87.771v-78.736h101.965v-24.501z" />
<glyph unicode="&#xe938;" horiz-adv-x="1694" d="M1078.649 736.714h-29.69v103.252h-73.561v-103.252h-29.69v220.699h29.69v-92.945h73.561v92.945h29.69v-220.699z" />
<glyph unicode="&#xe939;" horiz-adv-x="1694" d="M1249.016 847.699c0-40.455-6.261-69.487-18.726-87.113-12.479-17.64-29.905-26.474-52.276-26.474-22.386 0-40.011 8.82-52.92 26.474-12.908 17.611-19.355 46.659-19.355 87.113s6.461 69.273 19.355 86.498c12.908 17.197 30.534 25.802 52.92 25.802 22.371 0 39.797-8.606 52.276-25.802 12.479-17.24 18.726-46.044 18.726-86.498zM1218.039 847.699c0 36.152-3.874 59.81-11.622 71.003-7.748 11.164-17.225 16.782-28.39 16.782-11.193 0-20.871-5.618-29.033-16.782-8.191-11.193-12.265-34.851-12.265-71.003 0-36.123 4.074-59.996 12.265-71.617 8.162-11.622 17.854-17.425 29.033-17.425s20.656 5.804 28.39 17.425c7.762 11.607 11.622 35.48 11.622 71.617z" />
<glyph unicode="&#xe93a;" horiz-adv-x="1694" d="M1409.061 932.883h-51.619v-196.169h-29.69v196.169h-51.633v24.53h132.942v-24.53z" />
<glyph unicode="&#xe93b;" glyph-name="hot40" horiz-adv-x="1694" d="M340.59 151.481v152.784c-15.782 0-32.149-0.615-49.117-1.815v30.934c16.968-1.229 33.936-1.815 50.933-1.815h283.782c21.828 0 43.028 0.586 63.669 1.815v-30.934c-20.628 1.201-41.841 1.815-63.669 1.815h-143.721v-129.126l25.473 7.262c0-10.921 0.6-20.013 1.815-27.275-9.721-2.459-18.812-4.274-27.289-5.475 0-21.8 0.6-43.028 1.815-63.655h-34.565c1.186 20.628 1.815 40.011 1.815 58.209-13.366-2.459-33.064-6.361-59.124-11.836-26.088-5.446-54.292-11.808-84.583-19.098-3.631 13.351-7.905 24.258-12.737 32.75 9.721 1.201 24.859 3.016 45.501 5.461zM629.818 440.71v-32.75c0-13.351 0.6-28.504 1.815-45.486h-278.321c1.186 16.982 1.815 32.135 1.815 45.486v32.75c0 13.323-0.615 27.889-1.815 43.671h278.321c-1.215-15.782-1.815-30.362-1.815-43.671zM451.547 273.359v30.906h-80.037v-30.906h80.037zM451.547 216.966v30.934h-80.037v-30.934h80.037zM451.547 167.849v25.459h-80.037v-36.38l80.037 10.921zM595.253 435.235v25.488h-207.362v-25.488h207.362zM595.253 386.117v23.644h-207.362v-23.644h207.362zM500.664 275.175c21.828-1.229 41.841-1.815 60.024-1.815h90.944c-13.366-50.947-29.104-90.344-47.302-118.233 30.305-19.398 59.41-31.52 87.313-36.38-10.921-8.491-17.597-18.197-20.013-29.119-30.334 9.721-58.838 25.459-85.498 47.302-15.782-16.954-37.009-34.565-63.669-52.734-4.86 7.262-13.366 14.552-25.473 21.828 25.473 8.491 47.302 23.644 65.485 45.486-20.628 20.599-36.38 52.734-47.302 96.405h-14.552v27.26zM580.701 171.48c14.552 20.599 25.473 46.072 32.75 76.42h-69.13c4.832-29.133 16.968-54.592 36.38-76.42zM782.616 78.706c-10.921 7.29-22.457 12.737-34.565 16.382 14.566 20.628 30.934 50.933 49.117 90.93 10.921-7.262 22.429-13.351 34.565-18.169-8.505-10.921-24.873-40.655-49.117-89.143zM824.458 238.794c3.645 2.402 5.461 8.463 5.461 18.169v49.146c-19.412-4.889-40.64-10.921-63.669-18.197-2.444 10.921-6.676 23.029-12.737 36.38 18.183 1.201 43.657 5.475 76.406 12.737v60.024c-24.273 0-46.701-0.615-67.3-1.815v30.934c19.384-1.229 41.841-1.844 67.3-1.844 0 32.75-0.629 58.823-1.815 78.236h34.551c-1.215-15.782-1.815-41.827-1.815-78.236 14.566 0 32.121 0.615 52.748 1.844v-30.934c-20.628 1.201-38.196 1.815-52.748 1.815v-52.734c16.982 3.631 34.565 7.876 52.748 12.737v-29.119c-18.183-4.86-35.78-9.721-52.748-14.552v-54.549c0-25.488-4.26-40.655-12.737-45.486-8.491-4.86-25.459-9.721-50.933-14.552-3.631 13.323-9.092 26.045-16.368 38.196 25.459-1.244 40.011-0.658 43.657 1.801zM871.745 162.374c10.921 3.659 21.199 7.876 30.934 12.765 16.968-37.61 27.289-64.27 30.92-80.051-12.136-3.659-23.043-7.29-32.75-10.921-4.846 20.642-14.552 46.659-29.104 78.207zM969.98 300.634c-8.491 8.463-23.043 18.783-43.657 30.934 7.276 9.692 13.323 18.783 18.183 27.275 14.552-8.491 26.66-16.368 36.38-23.644 4.832 15.753 7.276 37.581 7.276 65.499-14.566 0-32.149-1.229-52.748-3.659l-1.815 29.119c19.384 1.172 37.567 1.815 54.578 1.815 0 29.090-0.629 53.935-1.815 74.576 8.463-3.631 21.828-6.090 40.011-7.29-3.631-18.169-5.461-40.626-5.461-67.286l80.051 3.631c-3.645-19.398-6.090-46.373-7.276-80.938-1.215-34.565 1.815-61.568 9.092-80.966s14.238-28.504 20.913-27.275c6.647 1.201 11.822 16.982 15.467 47.302 10.921-7.262 22.429-12.151 34.565-14.552-9.721-30.319-17.911-49.417-24.559-57.294-6.676-7.905-14.266-11.836-22.743-11.836-8.505 0-18.812 4.546-30.92 13.652-12.136 9.106-21.228 28.79-27.289 59.109-6.075 30.291-7.905 71.56-5.461 123.708l-41.841-1.815c-1.215-29.119-5.446-57.623-12.737-85.512 25.473-19.398 44.257-33.95 56.393-43.642-7.276-10.921-13.952-21.242-20.013-30.934-20.628 21.828-36.38 35.766-47.302 41.855-14.552-32.75-37.596-64.298-69.116-94.589-7.276 10.921-17.583 18.769-30.92 23.644 33.936 25.459 58.209 55.164 72.761 89.114zM975.44 169.664c12.108 3.631 22.429 7.876 30.934 12.737 14.552-30.319 26.66-57.566 36.38-81.867-13.366-3.631-24.873-7.876-34.565-12.737-9.721 29.119-20.642 56.408-32.75 81.867zM1077.306 182.401c9.692 3.631 19.384 8.463 29.104 14.552 26.66-43.642 44.857-75.163 54.578-94.589l-32.75-16.368c-8.491 20.628-25.459 52.734-50.933 96.405zM1433.391 316.944v-229.762h-229.719zM1515.258-64h-1336.572c-98.535 0-178.686 80.166-178.686 178.658v350.11c0 98.535 80.151 178.686 178.686 178.686h1336.572c98.535 0 178.686-80.151 178.686-178.686v-350.11c0-98.492-80.151-178.658-178.686-178.658zM178.686 629.159c-90.644 0-164.391-73.762-164.391-164.391v-350.11c0-90.63 73.747-164.363 164.391-164.363h1336.572c90.644 0 164.391 73.733 164.391 164.363v350.11c0 90.63-73.747 164.391-164.391 164.391h-1336.572zM417.825 932.883h-51.633v-196.169h-29.69v196.169h-51.619v24.53h132.942v-24.53zM583.031 736.714h-29.69v103.252h-73.561v-103.252h-29.69v220.699h29.69v-92.945h73.561v92.945h29.69v-220.699zM750.81 736.714h-131.642v220.699h125.195v-24.544h-95.504v-68.401h87.771v-24.516h-87.771v-78.736h101.965v-24.501zM1078.649 736.714h-29.69v103.252h-73.561v-103.252h-29.69v220.699h29.69v-92.945h73.561v92.945h29.69v-220.699zM1249.016 847.699c0-40.455-6.261-69.487-18.726-87.113-12.479-17.64-29.905-26.474-52.276-26.474-22.386 0-40.011 8.82-52.92 26.474-12.908 17.611-19.355 46.659-19.355 87.113s6.461 69.273 19.355 86.498c12.908 17.197 30.534 25.802 52.92 25.802 22.371 0 39.797-8.606 52.276-25.802 12.479-17.24 18.726-46.044 18.726-86.498zM1218.039 847.699c0 36.152-3.874 59.81-11.622 71.003-7.748 11.164-17.225 16.782-28.39 16.782-11.193 0-20.871-5.618-29.033-16.782-8.191-11.193-12.265-34.851-12.265-71.003 0-36.123 4.074-59.996 12.265-71.617 8.162-11.622 17.854-17.425 29.033-17.425s20.656 5.804 28.39 17.425c7.762 11.607 11.622 35.48 11.622 71.617zM1409.061 932.883h-51.619v-196.169h-29.69v196.169h-51.633v24.53h132.942v-24.53z" />
<glyph unicode="&#xe93c;" glyph-name="new38" horiz-adv-x="1694" d="M340.59 151.467v152.812c-15.782 0-32.149-0.629-49.117-1.83v30.934c16.968-1.229 33.936-1.83 50.933-1.83h283.782c21.828 0 43.028 0.6 63.669 1.83v-30.934c-20.628 1.201-41.841 1.83-63.669 1.83h-143.721v-129.154l25.473 7.276c0-10.921 0.6-19.999 1.815-27.275-9.721-2.444-18.812-4.274-27.289-5.461 0-21.828 0.6-43.042 1.815-63.669h-34.565c1.186 20.628 1.815 40.026 1.815 58.209-13.366-2.444-33.064-6.361-59.124-11.822-26.088-5.461-54.292-11.822-84.583-19.098-3.631 13.337-7.905 24.23-12.737 32.735 9.721 1.201 24.859 3.016 45.501 5.446zM629.818 440.71v-32.75c0-13.366 0.6-28.504 1.815-45.472h-278.321c1.186 16.968 1.815 32.106 1.815 45.472v32.75c0 13.337-0.615 27.875-1.815 43.657h278.321c-1.215-15.782-1.815-30.334-1.815-43.657zM451.547 273.359v30.92h-80.037v-30.92h80.037zM451.547 216.966v30.92h-80.037v-30.92h80.037zM451.547 167.849v25.459h-80.037v-36.38l80.037 10.921zM595.253 435.249v25.459h-207.362v-25.459h207.362zM595.253 386.132v23.658h-207.362v-23.644h207.362zM500.664 275.175c21.828-1.229 41.841-1.815 60.024-1.815h90.944c-13.366-50.933-29.104-90.358-47.302-118.233 30.305-19.412 59.41-31.52 87.313-36.38-10.921-8.477-17.597-18.197-20.013-29.104-30.334 9.721-58.838 25.459-85.498 47.302-15.782-16.982-37.009-34.565-63.669-52.748-4.86 7.276-13.366 14.552-25.473 21.814 25.473 8.505 47.302 23.644 65.485 45.486-20.628 20.599-36.38 52.748-47.302 96.405h-14.552v27.275zM580.701 171.48c14.552 20.613 25.473 46.087 32.75 76.406h-69.13c4.832-29.119 16.968-54.578 36.38-76.406zM811.721 170.565c-9.721-12.737-23.644-30.648-41.841-53.663-8.505 8.505-17.597 15.753-27.289 21.828 25.459 27.875 45.472 56.979 60.024 87.313 12.108-9.735 23.644-17.597 34.565-23.644-7.262-8.491-15.767-19.098-25.459-31.835zM913.586 347.936c20.599 0 41.841 0.6 63.669 1.815v-36.38c-20.628 1.201-51.562 1.83-92.774 1.83v-45.486c37.581 0 67.3 0.6 89.129 1.815v-36.38c-21.828 1.201-51.547 1.815-89.129 1.815v-110.957c0-18.183-5.761-30.305-17.268-36.38-11.536-6.061-26.374-9.106-44.571-9.106-4.86 14.566-10.921 27.904-18.183 40.026 16.968-1.201 28.79-1.201 35.466 0 6.647 1.215 10.006 6.647 10.006 16.382v100.036c-38.825 0-69.116-0.615-90.958-1.815v36.38c23.029-1.215 53.349-1.815 90.958-1.815v45.486c-44.886 0-78.222-0.629-100.050-1.83v36.38c21.828-1.215 42.442-1.815 61.854-1.815h69.116c9.692 29.104 16.968 51.519 21.828 67.3 9.692-2.444 23.015-6.075 40.011-10.907-8.491-4.875-18.183-23.644-29.104-56.393zM891.758 457.077c27.889 0 53.949 0.586 78.222 1.815v-36.38c-25.459 1.186-46.101 1.815-61.854 1.815h-87.313c-20.628 0-40.64-0.629-60.024-1.815v36.38c20.599-1.229 40.612-1.815 60.024-1.815h32.75c-2.444 13.323-6.075 27.275-10.921 41.841 12.108 3.631 24.845 7.276 38.196 10.907 6.061-25.459 9.706-43.056 10.921-52.748zM840.825 362.488c-10.921-2.459-21.228-6.090-30.92-10.921-6.090 18.183-12.737 34.565-20.013 49.117 8.463 4.832 18.183 9.106 29.104 12.737 8.477-16.997 15.753-33.965 21.828-50.933zM964.533 160.573c-12.136-6.090-21.828-13.966-29.104-23.644-9.721 21.814-22.457 43.028-38.196 63.655 8.463 7.29 17.568 13.938 27.289 20.013 14.538-19.412 27.875-39.411 40.011-60.024zM1037.28 453.432v-92.774h94.589c13.337 0 27.289 0.6 41.841 1.83v-34.565c-16.997 1.186-31.549 1.815-43.657 1.815v-187.349c0-20.613 0.6-42.442 1.815-65.499h-38.196c1.186 23.058 1.815 44.3 1.815 63.669v189.179h-58.209c0-30.319-1.215-59.424-3.631-87.313-2.444-27.904-7.591-55.478-15.467-82.767-7.905-27.275-19.727-55.478-35.466-84.583-12.136 7.276-24.273 13.366-36.38 18.183 19.37 27.918 33.021 57.308 40.926 88.228 7.876 30.92 12.422 57.909 13.652 80.952 1.186 23.015 1.815 57.58 1.815 103.681 0 47.302-0.615 84.883-1.815 112.787 54.564 2.416 103.681 10.921 147.352 25.459 9.692-19.398 17.568-32.735 23.644-40.011-18.197 0-63.083-3.645-134.629-10.921zM1433.391 316.944v-229.747h-229.719zM1515.258-64.014h-1336.572c-98.535 0-178.686 80.151-178.686 178.686v350.096c0 98.535 80.151 178.686 178.686 178.686h1336.572c98.535 0 178.686-80.151 178.686-178.686v-350.096c0-98.52-80.151-178.686-178.686-178.686zM178.686 629.159c-90.644 0-164.391-73.747-164.391-164.391v-350.096c0-90.644 73.747-164.391 164.391-164.391h1336.572c90.644 0 164.391 73.747 164.391 164.391v350.096c0 90.644-73.747 164.391-164.391 164.391h-1336.572zM412.007 932.897h-51.633v-196.183h-29.69v196.183h-51.619v24.516h132.942v-24.516zM577.213 736.714h-29.69v103.252h-73.561v-103.252h-29.69v220.699h29.69v-92.931h73.561v92.931h29.69v-220.699zM745.007 736.714h-131.642v220.699h125.195v-24.53h-95.504v-68.401h87.771v-24.53h-87.771v-78.736h101.965v-24.501zM1072.831 736.714h-32.264l-70.988 160.031h-1.287v-160.031h-29.69v220.699h32.264l70.988-160.046h1.287v160.046h29.69v-220.699zM1240.625 736.714h-131.656v220.699h125.195v-24.53h-95.504v-68.401h87.771v-24.53h-87.771v-78.736h101.965v-24.501zM1414.865 957.413l-28.39-223.286h-25.817l-23.229 165.206h-2.587l-23.229-165.206h-25.817l-28.39 223.286h28.39l14.195-140.69h2.573l19.355 140.69h28.39l19.355-140.69h2.587l14.195 140.69h28.418z" />
</font>
</defs>
</svg>
